<?xml version="1.0" standalone="no"?>
<!DOCTYPE svg PUBLIC "-//W3C//DTD SVG 20010904//EN"
 "http://www.w3.org/TR/2001/REC-SVG-20010904/DTD/svg10.dtd">
<svg version="1.0" xmlns="http://www.w3.org/2000/svg"
 width="700.000000pt" height="700.000000pt" viewBox="0 0 700.000000 700.000000"
 preserveAspectRatio="xMidYMid meet">
<metadata>
Created by potrace 1.11, written by Peter Selinger 2001-2013
</metadata>
<g transform="translate(0.000000,700.000000) scale(0.100000,-0.100000)"
fill="#000000" stroke="none">
<path d="M5525 6748 c-11 -7 -25 -17 -31 -23 -36 -36 -36 -34 -36 -1031 0
-535 -4 -994 -9 -1020 -30 -160 -165 -275 -334 -282 -113 -5 -180 21 -261 102
-101 101 -106 122 -109 466 -1 236 -5 297 -20 355 -48 188 -186 357 -353 432
-192 85 -387 83 -572 -8 -186 -92 -334 -300 -354 -499 -2 -25 -5 -360 -5 -745
l-1 -701 -882 0 c-896 -1 -930 -2 -1098 -30 -637 -108 -1188 -596 -1379 -1221
-59 -193 -76 -310 -76 -523 0 -194 9 -274 50 -445 78 -332 256 -656 488 -889
107 -107 165 -156 262 -218 178 -115 356 -183 565 -216 90 -14 470 -6 582 13
13 2 47 6 76 9 29 3 63 8 75 11 12 2 40 6 62 9 84 10 268 49 480 101 121 30
240 57 265 60 25 3 52 8 60 10 8 2 40 7 70 10 30 4 57 8 60 10 15 9 220 19
400 20 182 0 315 -6 418 -20 100 -13 191 -26 208 -29 55 -12 206 -48 254 -61
182 -50 449 -99 710 -129 231 -27 486 -28 616 -2 373 75 726 315 960 652 68
98 68 97 125 208 28 55 66 139 85 188 36 94 88 298 99 388 4 30 10 64 12 75 3
11 6 106 8 210 3 225 -17 374 -74 560 -183 590 -661 1048 -1249 1194 -215 54
-219 54 -1164 54 l-828 1 -1 20 c-4 162 1 1387 6 1418 9 57 57 154 97 199 96
106 256 161 389 134 148 -29 273 -141 317 -285 19 -61 21 -99 22 -361 1 -276
10 -342 60 -439 76 -149 217 -264 376 -308 85 -24 213 -26 293 -6 213 54 390
232 442 444 10 44 13 253 14 1049 0 643 -3 1004 -10 1024 -19 60 -108 95 -160
65z m-70 -3206 c33 -6 78 -14 100 -18 66 -9 274 -82 360 -125 398 -201 693
-573 804 -1014 15 -58 27 -133 36 -220 6 -52 6 -273 1 -305 -3 -14 -10 -59
-16 -100 -74 -507 -401 -985 -799 -1171 -188 -88 -293 -109 -536 -104 -180 4
-213 6 -310 19 -22 4 -60 8 -85 11 -25 3 -56 8 -70 10 -14 2 -45 7 -70 10 -82
11 -293 56 -450 95 -232 57 -314 73 -440 86 -36 3 -67 8 -70 10 -12 6 -261 18
-390 18 -127 0 -332 -10 -410 -19 -19 -3 -55 -7 -80 -10 -58 -7 -273 -46 -281
-50 -3 -2 -16 -6 -30 -8 -13 -3 -98 -23 -189 -46 -148 -36 -321 -71 -421 -85
-243 -35 -302 -39 -494 -40 -229 -1 -278 6 -435 63 -468 171 -838 648 -919
1186 -19 129 -21 160 -21 275 1 271 51 478 171 711 154 297 399 537 694 679
176 85 338 131 515 147 36 3 66 6 67 7 1 1 836 1 1855 1 1367 -1 1869 -4 1913
-13z"/>
<path d="M3263 3300 c-56 -34 -75 -105 -42 -159 35 -58 44 -59 387 -58 l312 2
32 33 c28 28 33 39 33 82 0 43 -5 54 -33 82 l-32 33 -313 2 c-294 3 -314 2
-344 -17z"/>
<path d="M5099 3302 c-128 -34 -240 -124 -300 -243 -36 -71 -50 -135 -51 -219
-2 -300 295 -531 587 -455 176 46 319 197 351 372 43 230 -92 459 -316 538
-68 24 -193 27 -271 7z m234 -251 c136 -76 163 -263 55 -371 -124 -124 -338
-75 -391 89 -24 77 -7 169 45 231 20 24 75 61 106 71 45 14 143 4 185 -20z"/>
<path d="M1528 2959 c-44 -7 -85 -37 -94 -69 -4 -14 -8 -108 -9 -210 l0 -185
-200 -5 c-180 -4 -203 -7 -227 -25 -15 -11 -32 -33 -38 -49 -15 -42 -14 -777
2 -810 25 -55 46 -61 262 -66 l199 -5 2 -195 c2 -296 -35 -274 464 -275 417 0
423 0 463 55 15 22 18 50 20 220 l3 195 201 5 c184 5 204 7 224 25 48 44 49
49 49 445 -1 413 -2 424 -61 460 -30 18 -50 20 -224 20 l-192 0 0 195 1 195
-27 34 c-15 21 -39 37 -58 42 -38 9 -709 12 -760 3z m603 -238 c1 -3 2 -92 3
-197 3 -277 0 -274 291 -274 l185 0 0 -235 0 -235 -22 -1 c-13 0 -97 -1 -188
-1 -262 0 -264 -2 -265 -283 l0 -190 -237 -1 -238 -2 0 192 c0 206 -4 223 -53
260 -26 19 -42 21 -212 22 -102 1 -190 4 -197 7 -10 3 -13 54 -12 223 1 121 2
225 3 232 1 9 45 12 187 12 286 0 284 -2 284 277 0 104 2 192 4 194 7 7 466 6
467 0z"/>
<path d="M4277 2474 c-266 -70 -421 -344 -339 -601 66 -207 269 -347 479 -330
98 8 121 14 193 53 160 87 251 238 251 414 1 211 -126 387 -326 455 -62 21
-194 26 -258 9z m196 -239 c190 -79 205 -340 25 -429 -162 -81 -350 36 -343
213 4 107 66 186 175 224 31 11 109 6 143 -8z"/>
<path d="M5937 2474 c-82 -21 -160 -65 -217 -123 -188 -191 -191 -478 -6 -666
148 -151 354 -186 553 -93 57 26 170 136 199 193 74 144 76 301 7 443 -53 108
-171 207 -286 240 -67 19 -189 22 -250 6z m205 -243 c151 -66 190 -250 81
-381 -10 -12 -40 -33 -66 -46 -156 -80 -342 36 -340 211 0 74 27 130 82 176
71 60 162 75 243 40z"/>
<path d="M5120 1646 c-171 -37 -323 -185 -360 -353 -51 -225 57 -441 270 -542
71 -33 80 -35 185 -35 86 -1 121 3 160 18 198 77 319 251 317 456 -3 297 -281
518 -572 456z m171 -237 c181 -61 222 -302 71 -412 -100 -73 -223 -64 -309 22
-60 59 -80 138 -60 228 14 62 93 145 152 160 55 15 106 15 146 2z"/>
</g>
</svg>
